# xmcd
#
# Track frame offsets: 
#        150
#        16951
#        34186
#        52109
#        66571
#        81807
#        92668
#        106856
#        122791
#        144798
#        162963
#        174836
#        195474
#        217848
#        234352
#        247529
#        267318
#        284927
#
# Disc length: 3958 seconds
#
# Revision: 3
# Processed by: cddbd v1.5.2PL0 Copyright (c) Steve Scherf et al.
# Submitted via: ExactAudioCopyFreeDBPlugin 1.0
#
DISCID=f20f7412
DTITLE=Charles Aznavour - Formidable: Das Beste
DYEAR=2014
DGENRE=Chanson
TTITLE0=Du läßt dich geh'n
TTITLE1=Spiel Zigeuner
TTITLE2=Playboy’s Abschied (Wie es war)
TTITLE3=La bohème (Deutsche Version)
TTITLE4=Das
TTITLE5=Für mich - For Me - Formidable
TTITLE6=The Old Fashioned Way
TTITLE7=Yesterday When I Was Young
TTITLE8=Wieder allein
TTITLE9=Mourir d'aimer (Deutsche Version)
TTITLE10=Sie
TTITLE11=Tanz' Wange an Wange mit mir
TTITLE12=Wie sie sagen
TTITLE13=Unvergesslich
TTITLE14=Die schöne Zeit
TTITLE15=Du gegen mich
TTITLE16=Ich klammre mich an dich
TTITLE17=Charles Aznavour and Herbert Grönemeyer - Als es mir beschissen
TTITLE17=ging (mit Herbert Grönemeyer)
EXTD=
EXTT0=
EXTT1=
EXTT2=
EXTT3=
EXTT4=
EXTT5=
EXTT6=
EXTT7=
EXTT8=
EXTT9=
EXTT10=
EXTT11=
EXTT12=
EXTT13=
EXTT14=
EXTT15=
EXTT16=
EXTT17=
PLAYORDER=
